                            Swedish Hardsub


 
http://www.imdb.com/title/tt0096071/




General
Complete name   : The.Serpent.and.the.Rainbow.1988.DVDRip.SweSub.Xvid.avi
Format                              : AVI
Format/Info                         : Audio Video Interleave
File size                           : 699 MiB
Duration                            : 1h 33mn

Video
ID                                  : 0
Format                              : MPEG-4 Visual
Format profile                      : Advanced Simple@L5
Format settings, BVOP               : 2
Format settings, QPel               : No
Format settings, GMC                : No warppoints
Format settings, Matrix             : Default (H.263)
Muxing mode                         : Packed bitstream
Codec ID                            : XVID
Codec ID/Hint                       : XviD
Duration                            : 1h 33mn
Bit rate                            : 901 Kbps
Width                               : 656 pixels
Height                              : 368 pixels
Display aspect ratio                : 16:9
Frame rate                          : 25.000 fps
Color space                         : YUV
Chroma subsampling                  : 4:2:0
Bit depth                           : 8 bits
Scan type                           : Progressive
Compression mode                    : Lossy
Bits/(Pixel*Frame)                  : 0.149
Stream size                         : 603 MiB (86%)
Writing library                     : XviD 73

Audio
ID                                  : 1
Format                              : MPEG Audio
Format version                      : Version 1
Format profile                      : Layer 3
Mode                                : Joint stereo
Mode extension                      : MS Stereo
Codec ID                            : 55
Codec ID/Hint                       : MP3
Duration                            : 1h 33mn
Bit rate mode                       : Variable
Bit rate                            : 128 Kbps
Channel(s)                          : 2 channels
Sampling rate                       : 48.0 KHz
Compression mode                    : Lossy
Stream size                         : 87.2 MiB (12%)
Alignment                           : Aligned on interleaves
Interleave, duration                : 24 ms (0.60 video frame)
Interleave, preload duration        : 480 ms